<?xml version="1.0" encoding="UTF-8"?>
<!DOCTYPE svg PUBLIC "-//W3C//DTD SVG 1.1//EN" "http://www.w3.org/Graphics/SVG/1.1/DTD/svg11.dtd">
<svg version="1.1" xmlns="http://www.w3.org/2000/svg" xmlns:xlink="http://www.w3.org/1999/xlink" x="0" y="0" width="470" height="190" viewBox="0, 0, 470, 190">
  <g id="Layer_1">
    <path d="M40.071,77.255 L430.929,77.255 C442.29,77.255 451.5,83.971 451.5,92.255 L451.5,170.255 C451.5,178.54 442.29,185.255 430.929,185.255 L40.071,185.255 C28.71,185.255 19.5,178.54 19.5,170.255 L19.5,92.255 C19.5,83.971 28.71,77.255 40.071,77.255 z" fill="#8C1515"/>
    <path d="M235.5,144 C195.735,144 163.5,111.765 163.5,72 C163.5,32.236 195.735,0 235.5,0 C275.264,0 307.5,32.236 307.5,72 C307.5,111.765 275.264,144 235.5,144 z" fill="#8C1515"/>
    <g>
      <path d="M236,5.755 C277.974,5.755 312,37.991 312,77.755 L442.286,77.755 C454.278,77.755 464,84.471 464,92.755 L464,170.755 C464,179.04 454.278,185.755 442.286,185.755 L29.714,185.755 C17.722,185.755 8,179.04 8,170.755 L8,92.755 C8,84.471 17.722,77.755 29.714,77.755 L160,77.755 C160,37.991 194.026,5.755 236,5.755 z" fill="#FFFFFF"/>
      <path d="M236,5.755 C277.974,5.755 312,37.991 312,77.755 L442.286,77.755 C454.278,77.755 464,84.471 464,92.755 L464,170.755 C464,179.04 454.278,185.755 442.286,185.755 L29.714,185.755 C17.722,185.755 8,179.04 8,170.755 L8,92.755 C8,84.471 17.722,77.755 29.714,77.755 L160,77.755 C160,37.991 194.026,5.755 236,5.755 z" fill-opacity="0" stroke="#852C2C" stroke-width="10"/>
    </g>
    <path d="M252.792,108.573 C230.703,108.98 212.501,91.403 212.135,69.316 C211.769,47.228 229.378,28.993 251.467,28.587 C273.555,28.181 291.758,45.757 292.124,67.845 C292.49,89.932 274.88,108.167 252.792,108.573 z" fill="#FFBD00"/>
    <path d="M251.467,28.587 C273.555,28.181 291.758,45.757 292.124,67.845 C292.18,77.992 288.607,88.271 281.487,95.643 L280.42,95.222 C279.399,94.849 278.27,94.501 276.782,94.082 C276.04,93.873 273.47,93.172 273.204,93.099 C271.964,92.748 270.714,92.413 269.501,91.978 C267.148,88.021 264.545,84.22 261.916,80.444 C261.568,79.944 258.522,75.601 257.636,74.322 C257.326,73.876 257.031,73.448 256.745,73.033 C247.223,61.019 233.375,51.605 218.994,46.302 C226.09,35.242 238.582,29.15 251.467,28.587 z" fill="#FFBD00"/>
    <path d="M26,174.755 L446,174.755 L446,174.755 C449.866,174.755 453,171.621 453,167.755 C453,163.889 449.866,160.755 446,160.755 C446,160.755 446,160.755 446,160.755 L26,160.755 C22.134,160.755 19,163.889 19,167.755 C19,171.621 22.134,174.755 26,174.755 L26,174.755" fill="#852C2C"/>
    <path d="M26,102.755 L200,102.755 L200,102.755 C203.866,102.755 207,99.621 207,95.755 C207,91.889 203.866,88.755 200,88.755 L26,88.755 C22.134,88.755 19,91.889 19,95.755 C19,99.621 22.134,102.755 26,102.755 L26,102.755" fill="#852C2C"/>
    <path d="M193.875,48.754 L194.749,48.77 L196.394,48.821 L197.994,48.899 L199.58,49.004 L201.15,49.137 L202.705,49.296 L204.245,49.481 L205.77,49.693 L207.279,49.93 L208.773,50.194 L210.252,50.483 L211.715,50.797 L213.163,51.136 L214.595,51.5 L216.012,51.889 L217.413,52.302 L218.798,52.739 L220.168,53.201 L221.522,53.686 L222.86,54.195 L224.182,54.727 L225.489,55.282 L226.779,55.861 L228.054,56.462 L229.313,57.086 L230.556,57.733 L231.782,58.402 L232.993,59.093 L234.187,59.806 L235.365,60.541 L236.528,61.298 L237.673,62.077 L238.803,62.877 L239.916,63.698 L241.012,64.541 L242.092,65.405 L243.156,66.289 L244.202,67.195 L245.232,68.121 L246.246,69.068 L247.242,70.035 L248.221,71.023 L249.183,72.031 L250.128,73.058 L251.055,74.106 L251.966,75.174 L252.858,76.262 L253.733,77.369 L254.59,78.495 L255.429,79.641 L256.251,80.807 L257.054,81.991 L257.838,83.194 L258.605,84.416 L259.352,85.657 L260.081,86.917 L260.791,88.195 L261.482,89.491 L262.154,90.806 L262.807,92.138 L263.44,93.489 L264.054,94.857 L264.647,96.243 L265.221,97.647 L265.49,98.328 L265.49,98.328 C266.911,101.923 270.977,103.686 274.573,102.265 C278.168,100.844 279.931,96.778 278.51,93.182 C278.51,93.182 278.51,93.182 278.51,93.182 L278.177,92.34 L277.513,90.722 L276.824,89.121 L276.112,87.538 L275.376,85.972 L274.616,84.425 L273.832,82.896 L273.024,81.386 L272.193,79.895 L271.338,78.423 L270.46,76.97 L269.559,75.538 L268.635,74.125 L267.688,72.732 L266.718,71.36 L265.725,70.009 L264.71,68.679 L263.672,67.37 L262.612,66.083 L261.531,64.818 L260.427,63.575 L259.301,62.354 L258.154,61.157 L256.985,59.982 L255.795,58.83 L254.584,57.702 L253.352,56.598 L252.099,55.518 L250.826,54.463 L249.532,53.432 L248.218,52.426 L246.884,51.445 L245.531,50.49 L244.158,49.56 L242.765,48.657 L241.353,47.779 L239.923,46.928 L238.474,46.104 L237.006,45.307 L235.52,44.537 L234.016,43.795 L232.494,43.08 L230.954,42.393 L229.398,41.734 L227.824,41.104 L226.233,40.502 L224.625,39.929 L223.001,39.385 L221.361,38.87 L219.705,38.385 L218.033,37.929 L216.346,37.503 L214.644,37.106 L212.926,36.74 L211.193,36.404 L209.446,36.099 L207.685,35.824 L205.909,35.58 L204.119,35.367 L202.316,35.185 L200.498,35.035 L198.668,34.915 L196.824,34.827 L194.998,34.772 L194.125,34.756 C194.125,34.756 194.125,34.756 194.125,34.756 C190.259,34.688 187.07,37.765 187.001,41.631 C186.932,45.496 190.01,48.685 193.875,48.754 L193.875,48.754" fill="#852C2C"/>
    <path d="M446,88.755 L272,88.755 L272,88.755 C268.134,88.755 265,91.889 265,95.755 C265,99.621 268.134,102.755 272,102.755 C272,102.755 272,102.755 272,102.755 L446,102.755 C449.866,102.755 453,99.621 453,95.755 C453,91.889 449.866,88.755 446,88.755 L446,88.755" fill="#852C2C"/>
    <text transform="matrix(1, 0, 0, 1, 237.5, 134.255)">
      <tspan x="-214.47" y="18" font-family="AmericanTypewriter-Bold" font-size="60" kerning="0" fill="#000000">RIDGE CREST</tspan>
    </text>
  </g>
</svg>
